<svg width="263" height="66" viewBox="0 0 263 66" fill="none" xmlns="http://www.w3.org/2000/svg">
<path d="M76.3138 52.6151H68.9403L82.3652 14.165H90.8931L104.337 52.6151H96.9632L86.7781 22.0503H86.4802L76.3138 52.6151ZM76.5558 37.5392H96.6653V43.134H76.5558V37.5392Z" fill="white"/>
<path d="M118.804 53.122C116.557 53.122 114.547 52.54 112.771 51.376C110.996 50.2119 109.594 48.5222 108.563 46.3069C107.533 44.0915 107.018 41.4005 107.018 38.2338C107.018 35.0297 107.539 32.3261 108.582 30.1233C109.637 27.9079 111.058 26.237 112.846 25.1105C114.633 23.9715 116.626 23.402 118.823 23.402C120.499 23.402 121.877 23.6899 122.957 24.2656C124.036 24.8289 124.893 25.511 125.526 26.3121C126.159 27.1006 126.649 27.8453 126.997 28.5462H127.276V14.165H134.035V52.6151H127.407V48.0717H126.997C126.649 48.7726 126.147 49.5173 125.489 50.3058C124.831 51.0818 123.962 51.7452 122.882 52.2959C121.802 52.8466 120.443 53.122 118.804 53.122ZM120.685 47.546C122.112 47.546 123.329 47.158 124.334 46.382C125.34 45.5934 126.103 44.4982 126.625 43.0964C127.146 41.6946 127.407 40.0612 127.407 38.1963C127.407 36.3314 127.146 34.7105 126.625 33.3337C126.116 31.9569 125.358 30.8868 124.353 30.1233C123.36 29.3598 122.137 28.978 120.685 28.978C119.183 28.978 117.929 29.3723 116.924 30.1608C115.918 30.9493 115.161 32.0383 114.652 33.4276C114.143 34.8169 113.889 36.4065 113.889 38.1963C113.889 39.9986 114.143 41.607 114.652 43.0213C115.173 44.4232 115.937 45.5308 116.942 46.3444C117.96 47.1454 119.208 47.546 120.685 47.546Z" fill="white"/>
<path d="M149.448 53.1971C147.636 53.1971 146.003 52.8717 144.551 52.2208C143.111 51.5574 141.969 50.5812 141.125 49.292C140.293 48.0028 139.877 46.4132 139.877 44.5233C139.877 42.8962 140.175 41.5507 140.771 40.4868C141.367 39.4229 142.18 38.5718 143.21 37.9334C144.241 37.2951 145.401 36.8132 146.692 36.4878C147.996 36.1499 149.342 35.9058 150.733 35.7556C152.408 35.5804 153.768 35.4239 154.81 35.2862C155.853 35.1361 156.61 34.9108 157.082 34.6104C157.566 34.2975 157.808 33.8156 157.808 33.1647V33.0521C157.808 31.6377 157.392 30.5426 156.561 29.7666C155.729 28.9905 154.531 28.6025 152.967 28.6025C151.316 28.6025 150.006 28.9655 149.038 29.6915C148.082 30.4174 147.437 31.2748 147.102 32.2636L140.808 31.3624C141.305 29.6101 142.124 28.1457 143.266 26.9692C144.408 25.7801 145.805 24.8915 147.456 24.3032C149.107 23.7024 150.931 23.402 152.93 23.402C154.308 23.402 155.679 23.5647 157.045 23.8902C158.41 24.2156 159.658 24.7538 160.787 25.5048C161.917 26.2432 162.823 27.2508 163.506 28.5274C164.201 29.8041 164.549 31.3999 164.549 33.3149V52.6151H158.069V48.6537H157.845C157.436 49.4547 156.859 50.2057 156.114 50.9066C155.381 51.595 154.457 52.152 153.339 52.5775C152.235 52.9906 150.937 53.1971 149.448 53.1971ZM151.198 48.2031C152.551 48.2031 153.724 47.934 154.717 47.3958C155.71 46.8451 156.474 46.1191 157.008 45.2179C157.554 44.3168 157.827 43.3342 157.827 42.2703V38.8722C157.616 39.0474 157.256 39.2101 156.747 39.3603C156.25 39.5105 155.692 39.6419 155.071 39.7546C154.45 39.8672 153.836 39.9673 153.228 40.055C152.619 40.1426 152.092 40.2177 151.645 40.2803C150.64 40.4179 149.74 40.6432 148.945 40.9561C148.151 41.269 147.524 41.7071 147.065 42.2703C146.605 42.8211 146.376 43.5345 146.376 44.4106C146.376 45.6623 146.829 46.6072 147.735 47.2456C148.641 47.8839 149.795 48.2031 151.198 48.2031Z" fill="white"/>
<path d="M178.067 14.165V52.6151H171.326V14.165H178.067Z" fill="white"/>
<path d="M184.998 52.6151V23.7775H191.738V52.6151H184.998ZM188.387 19.6847C187.319 19.6847 186.401 19.328 185.631 18.6145C184.861 17.8886 184.477 17.0187 184.477 16.0049C184.477 14.9785 184.861 14.1087 185.631 13.3952C186.401 12.6693 187.319 12.3063 188.387 12.3063C189.467 12.3063 190.385 12.6693 191.142 13.3952C191.912 14.1087 192.297 14.9785 192.297 16.0049C192.297 17.0187 191.912 17.8886 191.142 18.6145C190.385 19.328 189.467 19.6847 188.387 19.6847Z" fill="white"/>
<path d="M205.41 35.7181V52.6151H198.669V23.7775H205.112V28.6776H205.447C206.105 27.063 207.154 25.7801 208.594 24.8289C210.046 23.8776 211.84 23.402 213.975 23.402C215.949 23.402 217.668 23.8276 219.133 24.6787C220.61 25.5298 221.752 26.7626 222.559 28.3772C223.378 29.9919 223.781 31.9507 223.769 34.2537V52.6151H217.029V35.305C217.029 33.3775 216.532 31.8693 215.539 30.7804C214.558 29.6915 213.199 29.147 211.461 29.147C210.282 29.147 209.233 29.4098 208.315 29.9355C207.408 30.4487 206.695 31.1934 206.173 32.1697C205.664 33.146 205.41 34.3288 205.41 35.7181Z" fill="white"/>
<path d="M243.283 53.1783C240.415 53.1783 237.939 52.5775 235.853 51.376C233.78 50.1619 232.185 48.4471 231.068 46.2318C229.951 44.0039 229.392 41.3817 229.392 38.3653C229.392 35.3989 229.951 32.7955 231.068 30.5551C232.198 28.3021 233.774 26.5499 235.797 25.2982C237.821 24.0341 240.198 23.402 242.929 23.402C244.692 23.402 246.355 23.6899 247.919 24.2656C249.495 24.8289 250.886 25.705 252.09 26.8941C253.306 28.0831 254.262 29.5976 254.957 31.4375C255.652 33.2649 256 35.4427 256 37.971V40.055H232.558V35.474H249.539C249.527 34.1723 249.247 33.0145 248.701 32.0007C248.155 30.9744 247.391 30.1671 246.411 29.5788C245.443 28.9905 244.313 28.6964 243.022 28.6964C241.644 28.6964 240.434 29.0344 239.391 29.7102C238.348 30.3736 237.535 31.2497 236.952 32.3387C236.381 33.4151 236.089 34.5979 236.077 35.887V39.886C236.077 41.5632 236.381 43.0025 236.989 44.2041C237.597 45.3932 238.448 46.3069 239.54 46.9452C240.632 47.571 241.911 47.8839 243.376 47.8839C244.356 47.8839 245.244 47.7462 246.038 47.4709C246.833 47.183 247.522 46.7637 248.105 46.213C248.689 45.6623 249.129 44.9801 249.427 44.1666L255.721 44.88C255.323 46.5572 254.566 48.0216 253.449 49.2732C252.344 50.5123 250.929 51.4761 249.204 52.1645C247.478 52.8404 245.505 53.1783 243.283 53.1783Z" fill="white"/>
<path fill-rule="evenodd" clip-rule="evenodd" d="M30.0794 10C32.2388 10 34.3982 11.0144 35.6321 13.0431L52.2475 40.3611C52.3493 40.5231 52.4434 40.69 52.5293 40.8613C52.9288 41.6516 53.1289 42.4713 53.1557 43.2776H53.1588V50.2589H53.1557C53.1841 51.1144 53.0173 51.9548 52.6867 52.7287C52.5212 53.1187 52.3144 53.4887 52.0714 53.8337C50.9516 55.4314 49.0472 56.542 46.7375 56.542H46.6729V56.5418C45.2139 56.5282 43.8715 56.052 42.8007 55.2604C39.154 52.9701 34.7821 51.6365 30.0821 51.6365H30.0766C25.3767 51.6365 21.0048 52.9701 17.3581 55.2604C16.2873 56.052 14.9449 56.5282 13.4859 56.5418V56.542H13.4213C11.1116 56.542 9.20717 55.4314 8.08743 53.8338C7.84443 53.4887 7.63761 53.1187 7.47211 52.7287C7.14144 51.9548 6.97471 51.1144 7.00311 50.2589H7V43.2776H7.00311C7.02988 42.4713 7.22997 41.6516 7.62947 40.8613C7.71538 40.69 7.80947 40.5231 7.91126 40.3612L24.5267 13.0431C25.7606 11.0144 27.92 10 30.0794 10ZM33.8017 19.0147C32.9833 17.6723 31.5511 17.0012 30.1188 17.0012C28.6866 17.0012 27.2544 17.6724 26.436 19.0147L15.4159 37.0893C15.3484 37.1965 15.286 37.3069 15.229 37.4202C14.6829 38.4979 14.6986 39.6584 15.1246 40.6531C15.2344 40.9111 15.3716 41.1559 15.5327 41.3842C16.2754 42.4413 17.5385 43.1761 19.0704 43.1761H19.1132V43.1759C20.0809 43.167 20.9713 42.8519 21.6815 42.3281C24.1001 40.8128 26.9998 39.9304 30.117 39.9304L30.1188 39.9304H30.1207C33.2379 39.9304 36.1376 40.8128 38.5562 42.3281C39.2664 42.8519 40.1568 43.1669 41.1244 43.1759V43.1761H41.1673C42.6992 43.1761 43.9623 42.4413 44.705 41.3842C44.8661 41.1559 45.0033 40.9111 45.1131 40.6531C45.5391 39.6584 45.5548 38.4979 45.0087 37.4202C44.9517 37.3069 44.8893 37.1965 44.8218 37.0893L33.8017 19.0147Z" fill="white"/>
</svg>
