<?xml version="1.0" encoding="UTF-8"?>
<!DOCTYPE svg PUBLIC "-//W3C//DTD SVG 1.1//EN" "http://www.w3.org/Graphics/SVG/1.1/DTD/svg11.dtd">
<svg xmlns="http://www.w3.org/2000/svg" version="1.1" width="654px" height="654px" style="shape-rendering:geometricPrecision; text-rendering:geometricPrecision; image-rendering:optimizeQuality; fill-rule:evenodd; clip-rule:evenodd" xmlns:xlink="http://www.w3.org/1999/xlink">
<g><path style="opacity:0.992" fill="#fdfdfd" d="M 303.5,-0.5 C 318.833,-0.5 334.167,-0.5 349.5,-0.5C 448.209,9.09666 528.043,52.7633 589,130.5C 626.597,182.119 648.097,239.786 653.5,303.5C 653.5,318.833 653.5,334.167 653.5,349.5C 643.903,448.209 600.237,528.043 522.5,589C 470.881,626.597 413.214,648.097 349.5,653.5C 334.167,653.5 318.833,653.5 303.5,653.5C 204.791,643.903 124.957,600.237 64,522.5C 26.4032,470.881 4.90318,413.214 -0.5,349.5C -0.5,334.167 -0.5,318.833 -0.5,303.5C 9.09666,204.791 52.7633,124.957 130.5,64C 182.119,26.4032 239.786,4.90318 303.5,-0.5 Z"/></g>
<g><path style="opacity:1" fill="#010101" d="M 285.5,37.5 C 328.26,35.6953 365.593,48.862 397.5,77C 400.206,79.3706 402.539,82.0372 404.5,85C 454.461,76.886 498.461,89.2194 536.5,122C 578.776,165.014 591.776,215.68 575.5,274C 617.786,325.652 624.619,381.819 596,442.5C 574.183,481.669 541.35,506.169 497.5,516C 472.787,580.516 425.787,614.35 356.5,617.5C 314.292,616.554 278.958,600.721 250.5,570C 201.032,578.052 157.365,566.052 119.5,534C 76.0647,490.834 62.7314,439.667 79.5,380.5C 44.0712,338.873 33.5712,291.539 48,238.5C 66.4897,185.355 102.99,152.021 157.5,138.5C 176.052,87.223 211.719,54.723 264.5,41C 271.693,40.1424 278.693,38.9758 285.5,37.5 Z"/></g>
<g><path style="opacity:1" fill="#fdfdfd" d="M 281.5,75.5 C 313.335,72.3894 341.669,80.7228 366.5,100.5C 328.494,123.172 290.16,145.339 251.5,167C 244.705,170.12 240.539,175.287 239,182.5C 238.667,237.833 238.333,293.167 238,348.5C 221.752,339.293 205.585,329.96 189.5,320.5C 188.333,269.837 188.167,219.17 189,168.5C 196.553,128.616 218.72,100.116 255.5,83C 264.105,79.8531 272.772,77.3531 281.5,75.5 Z"/></g>
<g><path style="opacity:1" fill="#fdfdfd" d="M 266.5,259.5 C 265.503,240.674 265.17,221.674 265.5,202.5C 307.309,178.092 349.309,153.926 391.5,130C 441.611,111.162 484.778,121.329 521,160.5C 540.83,186.146 548.663,215.146 544.5,247.5C 503.444,225.135 462.777,201.968 422.5,178C 414.589,175.807 407.256,177.141 400.5,182C 355.969,208.098 311.303,233.931 266.5,259.5 Z"/></g>
<g><path style="opacity:1" fill="#fdfdfd" d="M 149.5,180.5 C 150.167,227.5 150.833,274.5 151.5,321.5C 152.16,326.315 154.494,330.149 158.5,333C 205.833,360.333 253.167,387.667 300.5,415C 284.999,424.585 269.332,433.918 253.5,443C 252.167,443.667 250.833,443.667 249.5,443C 208.337,419.586 167.337,395.919 126.5,372C 83.5149,338.702 70.0149,295.869 86,243.5C 98.4423,213.557 119.609,192.557 149.5,180.5 Z"/></g>
<g><path style="opacity:1" fill="#252525" d="M 149.5,180.5 C 149.56,179.957 149.893,179.624 150.5,179.5C 151.5,226.829 151.833,274.162 151.5,321.5C 150.833,274.5 150.167,227.5 149.5,180.5 Z"/></g>
<g><path style="opacity:1" fill="#cacaca" d="M 265.5,202.5 C 265.17,221.674 265.503,240.674 266.5,259.5C 266.44,260.043 266.107,260.376 265.5,260.5C 264.172,241.004 264.172,221.671 265.5,202.5 Z"/></g>
<g><path style="opacity:1" fill="#fdfdfd" d="M 402.5,210.5 C 445.772,234.805 488.772,259.638 531.5,285C 569.035,315.266 582.535,354.099 572,401.5C 561.401,436.929 538.901,461.263 504.5,474.5C 504.667,427.499 504.5,380.499 504,333.5C 502.881,328.761 500.381,324.928 496.5,322C 448.967,294.737 401.634,267.237 354.5,239.5C 370.531,229.821 386.531,220.154 402.5,210.5 Z"/></g>
<g><path style="opacity:1" fill="#fdfdfd" d="M 266.5,364.5 C 265.51,339.908 265.177,315.241 265.5,290.5C 286.139,278.512 306.806,266.512 327.5,254.5C 348.167,266.5 368.833,278.5 389.5,290.5C 390.833,315.167 390.833,339.833 389.5,364.5C 369.629,376.2 349.629,387.7 329.5,399C 327.365,399.635 325.365,399.301 323.5,398C 304.331,386.97 285.331,375.803 266.5,364.5 Z"/></g>
<g><path style="opacity:1" fill="#cbcbcb" d="M 265.5,290.5 C 265.177,315.241 265.51,339.908 266.5,364.5C 265.168,352.519 264.501,340.185 264.5,327.5C 264.5,314.995 264.833,302.662 265.5,290.5 Z"/></g>
<g><path style="opacity:1" fill="#fdfdfd" d="M 416.5,306.5 C 432.969,315.569 449.302,324.902 465.5,334.5C 466.667,383.497 466.833,432.497 466,481.5C 459.865,523.957 437.365,554.123 398.5,572C 364.619,584.27 331.953,581.604 300.5,564C 296.318,561.074 292.318,557.907 288.5,554.5C 328.336,531.081 368.336,507.914 408.5,485C 411.433,482.736 413.6,479.902 415,476.5C 416.484,419.879 416.984,363.213 416.5,306.5 Z"/></g>
<g><path style="opacity:1" fill="#fcfcfc" d="M 388.5,395.5 C 389.497,414.326 389.83,433.326 389.5,452.5C 347.52,477.161 305.186,501.327 262.5,525C 221.91,541.176 184.243,536.176 149.5,510C 118.875,482.637 105.875,448.47 110.5,407.5C 149.727,429.118 188.727,451.285 227.5,474C 235.006,478.219 242.673,478.552 250.5,475C 296.364,448.236 342.364,421.736 388.5,395.5 Z"/></g>
<g><path style="opacity:1" fill="#c3c3c3" d="M 388.5,395.5 C 388.56,394.957 388.893,394.624 389.5,394.5C 390.828,413.996 390.828,433.329 389.5,452.5C 389.83,433.326 389.497,414.326 388.5,395.5 Z"/></g>
</svg>
