<?xml version="1.0" encoding="UTF-8"?>
<!DOCTYPE svg PUBLIC "-//W3C//DTD SVG 1.1//EN" "http://www.w3.org/Graphics/SVG/1.1/DTD/svg11.dtd">
<svg xmlns="http://www.w3.org/2000/svg" version="1.1" width="409px" height="409px" style="shape-rendering:geometricPrecision; text-rendering:geometricPrecision; image-rendering:optimizeQuality; fill-rule:evenodd; clip-rule:evenodd" xmlns:xlink="http://www.w3.org/1999/xlink">
<g><path style="opacity:0.994" fill="#fefefe" d="M 185.5,-0.5 C 197.833,-0.5 210.167,-0.5 222.5,-0.5C 295.667,8.65063 350.167,45.3173 386,109.5C 398.094,133.602 405.594,158.936 408.5,185.5C 408.5,197.833 408.5,210.167 408.5,222.5C 399.349,295.667 362.683,350.167 298.5,386C 274.398,398.094 249.064,405.594 222.5,408.5C 210.167,408.5 197.833,408.5 185.5,408.5C 112.333,399.349 57.8327,362.683 22,298.5C 9.90592,274.398 2.40592,249.064 -0.5,222.5C -0.5,210.167 -0.5,197.833 -0.5,185.5C 8.65063,112.333 45.3173,57.8327 109.5,22C 133.602,9.90592 158.936,2.40592 185.5,-0.5 Z"/></g>
<g><path style="opacity:1" fill="#25a3fe" d="M 329.5,138.5 C 328.669,152.994 328.169,167.661 328,182.5C 326.242,181.531 325.742,180.364 326.5,179C 321.258,177.189 321.592,176.189 327.5,176C 327.167,175.667 326.833,175.333 326.5,175C 323.089,174.091 319.755,173.091 316.5,172C 316.057,170.482 316.724,169.315 318.5,168.5C 318.023,167.522 317.357,166.689 316.5,166C 311.961,165.692 308.294,164.359 305.5,162C 307.679,161.558 308.345,160.558 307.5,159C 301.998,158.809 297.664,156.476 294.5,152C 298.671,153.253 299.338,152.253 296.5,149C 294.253,147.345 291.92,147.012 289.5,148C 281.969,140.923 274.635,134.423 267.5,128.5C 266.417,127.635 266.251,126.635 267,125.5C 267.914,126.654 268.747,126.487 269.5,125C 269,124.5 268.5,124 268,123.5C 267,124.833 266,124.833 265,123.5C 264.667,124.167 264.333,124.833 264,125.5C 261.527,123.027 259.027,120.527 256.5,118C 258.167,117.667 259.833,117.333 261.5,117C 261.167,116.667 260.833,116.333 260.5,116C 256.319,115.94 252.319,114.607 248.5,112C 250.5,111.667 252.5,111.333 254.5,111C 251.665,110.216 248.999,109.883 246.5,110C 244.951,108.786 243.785,107.286 243,105.5C 242.333,106.833 241.667,106.833 241,105.5C 239.561,103.725 238.561,101.725 238,99.5C 236.442,100.345 235.442,99.6785 235,97.5C 234.667,97.8333 234.333,98.1667 234,98.5C 229.326,94.6569 224.826,90.6569 220.5,86.5C 221.729,85.7189 223.062,85.2189 224.5,85C 220.432,85.2928 217.098,83.9595 214.5,81C 214.833,80.6667 215.167,80.3333 215.5,80C 210.463,77.7967 206.13,74.63 202.5,70.5C 203.729,69.7189 205.062,69.2189 206.5,69C 206.167,68.6667 205.833,68.3333 205.5,68C 203.359,68.0858 201.026,67.9191 198.5,67.5C 198.715,65.8212 198.048,64.8212 196.5,64.5C 198.779,62.7367 201.445,61.7367 204.5,61.5C 208.809,62.1533 212.809,63.6533 216.5,66C 252.003,86.9192 287.67,107.586 323.5,128C 327.504,130.471 329.504,133.971 329.5,138.5 Z"/></g>
<g><path style="opacity:1" fill="#239efb" d="M 196.5,64.5 C 198.048,64.8212 198.715,65.8212 198.5,67.5C 201.026,67.9191 203.359,68.0858 205.5,68C 205.833,68.3333 206.167,68.6667 206.5,69C 205.062,69.2189 203.729,69.7189 202.5,70.5C 206.13,74.63 210.463,77.7967 215.5,80C 215.167,80.3333 214.833,80.6667 214.5,81C 217.098,83.9595 220.432,85.2928 224.5,85C 223.062,85.2189 221.729,85.7189 220.5,86.5C 224.826,90.6569 229.326,94.6569 234,98.5C 234.333,98.1667 234.667,97.8333 235,97.5C 235.442,99.6785 236.442,100.345 238,99.5C 238.561,101.725 239.561,103.725 241,105.5C 241.667,106.833 242.333,106.833 243,105.5C 243.785,107.286 244.951,108.786 246.5,110C 248.999,109.883 251.665,110.216 254.5,111C 252.5,111.333 250.5,111.667 248.5,112C 252.319,114.607 256.319,115.94 260.5,116C 260.833,116.333 261.167,116.667 261.5,117C 259.833,117.333 258.167,117.667 256.5,118C 259.027,120.527 261.527,123.027 264,125.5C 264.333,124.833 264.667,124.167 265,123.5C 266,124.833 267,124.833 268,123.5C 268.5,124 269,124.5 269.5,125C 268.747,126.487 267.914,126.654 267,125.5C 266.251,126.635 266.417,127.635 267.5,128.5C 274.635,134.423 281.969,140.923 289.5,148C 291.92,147.012 294.253,147.345 296.5,149C 299.338,152.253 298.671,153.253 294.5,152C 297.664,156.476 301.998,158.809 307.5,159C 308.345,160.558 307.679,161.558 305.5,162C 308.294,164.359 311.961,165.692 316.5,166C 317.357,166.689 318.023,167.522 318.5,168.5C 316.724,169.315 316.057,170.482 316.5,172C 319.755,173.091 323.089,174.091 326.5,175C 326.833,175.333 327.167,175.667 327.5,176C 321.592,176.189 321.258,177.189 326.5,179C 325.742,180.364 326.242,181.531 328,182.5C 328.169,167.661 328.669,152.994 329.5,138.5C 329.5,155.167 329.5,171.833 329.5,188.5C 328.671,196.657 328.171,204.99 328,213.5C 324.216,211.389 321.55,208.389 320,204.5C 318.16,205.833 317.66,205.666 318.5,204C 315.816,203.222 313.483,201.889 311.5,200C 313.301,199.683 313.634,199.016 312.5,198C 308.195,196.466 304.195,193.799 300.5,190C 298.024,187.232 294.857,184.398 291,181.5C 290.667,180.167 290.333,178.833 290,177.5C 289.829,185.677 289.329,193.677 288.5,201.5C 288.5,187.833 288.5,174.167 288.5,160.5C 277.41,166.214 266.41,172.214 255.5,178.5C 254.469,177.751 253.302,177.085 252,176.5C 251.667,174.833 251.333,173.167 251,171.5C 243.167,164.333 235.333,157.167 227.5,150C 225.512,149.82 223.512,149.986 221.5,150.5C 230.794,144.895 240.127,139.228 249.5,133.5C 235.639,125.403 221.639,117.57 207.5,110C 205.527,109.505 203.527,109.338 201.5,109.5C 203.321,107.143 205.655,106.809 208.5,108.5C 208.736,107.753 209.07,106.92 209.5,106C 207.543,103.911 205.376,103.077 203,103.5C 200.795,100.96 198.295,98.7932 195.5,97C 195.833,96.6667 196.167,96.3333 196.5,96C 193.249,94.4226 190.249,92.4226 187.5,90C 186.321,87.0452 184.488,84.2118 182,81.5C 181.667,81.8333 181.333,82.1667 181,82.5C 178.3,80.7313 175.466,79.398 172.5,78.5C 180.136,73.3436 188.136,68.677 196.5,64.5 Z"/></g>
<g><path style="opacity:1" fill="#2095f5" d="M 172.5,78.5 C 175.466,79.398 178.3,80.7313 181,82.5C 181.333,82.1667 181.667,81.8333 182,81.5C 184.488,84.2118 186.321,87.0452 187.5,90C 190.249,92.4226 193.249,94.4226 196.5,96C 196.167,96.3333 195.833,96.6667 195.5,97C 198.295,98.7932 200.795,100.96 203,103.5C 205.376,103.077 207.543,103.911 209.5,106C 209.07,106.92 208.736,107.753 208.5,108.5C 205.655,106.809 203.321,107.143 201.5,109.5C 191.517,115.139 181.517,120.805 171.5,126.5C 168.574,123.683 165.574,120.849 162.5,118C 162.833,117.667 163.167,117.333 163.5,117C 159.561,114.878 156.894,112.378 155.5,109.5C 154.167,109.5 152.833,109.5 151.5,109.5C 151.5,108.5 151.5,107.5 151.5,106.5C 148.402,106.587 148.068,106.087 150.5,105C 146.109,103.423 142.442,100.923 139.5,97.5C 150.269,90.9429 161.269,84.6096 172.5,78.5 Z"/></g>
<g><path style="opacity:1" fill="#1c88ec" d="M 139.5,97.5 C 142.442,100.923 146.109,103.423 150.5,105C 148.068,106.087 148.402,106.587 151.5,106.5C 151.5,107.5 151.5,108.5 151.5,109.5C 152.833,109.5 154.167,109.5 155.5,109.5C 156.894,112.378 159.561,114.878 163.5,117C 163.167,117.333 162.833,117.667 162.5,118C 165.574,120.849 168.574,123.683 171.5,126.5C 162.167,131.833 152.833,137.167 143.5,142.5C 142.969,140.376 141.635,138.876 139.5,138C 139.957,137.586 140.291,137.086 140.5,136.5C 138.101,136.716 136.101,135.549 134.5,133C 134.833,132.667 135.167,132.333 135.5,132C 131.637,130.634 128.971,128.134 127.5,124.5C 125.42,123.956 123.42,123.122 121.5,122C 119.61,118.066 116.944,114.899 113.5,112.5C 121.772,107.024 130.439,102.024 139.5,97.5 Z"/></g>
<g><path style="opacity:1" fill="#fcfcfe" d="M 201.5,109.5 C 203.527,109.338 205.527,109.505 207.5,110C 221.639,117.57 235.639,125.403 249.5,133.5C 240.127,139.228 230.794,144.895 221.5,150.5C 216.963,152.93 212.63,155.597 208.5,158.5C 199.997,162.917 191.664,167.583 183.5,172.5C 169.983,177.39 164.316,187.057 166.5,201.5C 166.5,227.167 166.5,252.833 166.5,278.5C 154.1,271.968 141.767,265.135 129.5,258C 125.612,255.778 122.779,252.612 121,248.5C 120.5,222.169 120.333,195.835 120.5,169.5C 120.5,166.5 120.5,163.5 120.5,160.5C 121.418,158.18 122.752,156.013 124.5,154C 130.861,150.155 137.194,146.322 143.5,142.5C 152.833,137.167 162.167,131.833 171.5,126.5C 181.517,120.805 191.517,115.139 201.5,109.5 Z"/></g>
<g><path style="opacity:1" fill="#187be4" d="M 113.5,112.5 C 116.944,114.899 119.61,118.066 121.5,122C 123.42,123.122 125.42,123.956 127.5,124.5C 128.971,128.134 131.637,130.634 135.5,132C 135.167,132.333 134.833,132.667 134.5,133C 136.101,135.549 138.101,136.716 140.5,136.5C 140.291,137.086 139.957,137.586 139.5,138C 141.635,138.876 142.969,140.376 143.5,142.5C 137.194,146.322 130.861,150.155 124.5,154C 122.752,156.013 121.418,158.18 120.5,160.5C 117.482,159.647 115.649,157.647 115,154.5C 114.016,156.795 113.183,156.461 112.5,153.5C 111.624,152.749 110.624,152.249 109.5,152C 109.833,151.667 110.167,151.333 110.5,151C 102.815,146.127 95.8151,140.294 89.5,133.5C 86.4826,133.465 83.4826,133.465 80.5,133.5C 82.3355,130.832 84.6688,128.666 87.5,127C 96.3283,122.311 104.995,117.478 113.5,112.5 Z"/></g>
<g><path style="opacity:1" fill="#126fdc" d="M 120.5,160.5 C 120.5,163.5 120.5,166.5 120.5,169.5C 119.506,178.652 119.173,187.985 119.5,197.5C 118.883,197.611 118.383,197.944 118,198.5C 107.027,187.796 96.5267,178.462 86.5,170.5C 86.7163,168.319 85.883,166.653 84,165.5C 83.6667,166.167 83.3333,166.833 83,167.5C 82.7805,165.027 81.6138,163.36 79.5,162.5C 79.1935,152.75 79.5268,143.084 80.5,133.5C 83.4826,133.465 86.4826,133.465 89.5,133.5C 95.8151,140.294 102.815,146.127 110.5,151C 110.167,151.333 109.833,151.667 109.5,152C 110.624,152.249 111.624,152.749 112.5,153.5C 113.183,156.461 114.016,156.795 115,154.5C 115.649,157.647 117.482,159.647 120.5,160.5 Z"/></g>
<g><path style="opacity:1" fill="#1e92f3" d="M 255.5,178.5 C 250.901,181.922 245.901,184.588 240.5,186.5C 236.527,182.952 232.194,179.452 227.5,176C 228.167,175.667 228.833,175.333 229.5,175C 226.859,174.677 224.525,173.677 222.5,172C 223.167,171.667 223.833,171.333 224.5,171C 223.333,170.5 222.5,169.667 222,168.5C 221.667,169.167 221.333,169.833 221,170.5C 219.378,167.506 217.211,164.673 214.5,162C 212.121,161.284 210.121,160.117 208.5,158.5C 212.63,155.597 216.963,152.93 221.5,150.5C 223.512,149.986 225.512,149.82 227.5,150C 235.333,157.167 243.167,164.333 251,171.5C 251.333,173.167 251.667,174.833 252,176.5C 253.302,177.085 254.469,177.751 255.5,178.5 Z"/></g>
<g><path style="opacity:1" fill="#1d8bee" d="M 208.5,158.5 C 210.121,160.117 212.121,161.284 214.5,162C 217.211,164.673 219.378,167.506 221,170.5C 221.333,169.833 221.667,169.167 222,168.5C 222.5,169.667 223.333,170.5 224.5,171C 223.833,171.333 223.167,171.667 222.5,172C 224.525,173.677 226.859,174.677 229.5,175C 228.833,175.333 228.167,175.667 227.5,176C 232.194,179.452 236.527,182.952 240.5,186.5C 230.204,193.32 219.537,199.654 208.5,205.5C 213.832,191.317 209.832,180.817 196.5,174C 192.249,172.805 187.915,172.305 183.5,172.5C 191.664,167.583 199.997,162.917 208.5,158.5 Z"/></g>
<g><path style="opacity:1" fill="#fdfdfe" d="M 288.5,201.5 C 288.5,216.167 288.5,230.833 288.5,245.5C 287.104,251.902 283.437,256.569 277.5,259.5C 267.904,264.441 258.571,269.775 249.5,275.5C 239.633,280.929 229.967,286.596 220.5,292.5C 216.634,294.264 212.967,296.264 209.5,298.5C 209.167,298.5 208.833,298.5 208.5,298.5C 208.5,267.833 208.5,237.167 208.5,206.5C 208.5,206.167 208.5,205.833 208.5,205.5C 219.537,199.654 230.204,193.32 240.5,186.5C 245.901,184.588 250.901,181.922 255.5,178.5C 266.41,172.214 277.41,166.214 288.5,160.5C 288.5,174.167 288.5,187.833 288.5,201.5 Z"/></g>
<g><path style="opacity:1" fill="#0f66d6" d="M 79.5,162.5 C 81.6138,163.36 82.7805,165.027 83,167.5C 83.3333,166.833 83.6667,166.167 84,165.5C 85.883,166.653 86.7163,168.319 86.5,170.5C 96.5267,178.462 107.027,187.796 118,198.5C 118.383,197.944 118.883,197.611 119.5,197.5C 119.666,205.84 119.5,214.173 119,222.5C 117.826,220.329 115.993,219.329 113.5,219.5C 112.051,215.528 109.551,212.194 106,209.5C 104.927,210.28 103.76,210.113 102.5,209C 102.124,207.16 100.957,205.327 99,203.5C 98.2825,204.451 97.4491,204.617 96.5,204C 94.792,201.957 92.792,200.29 90.5,199C 91.1667,198.667 91.8333,198.333 92.5,198C 85.8499,195.521 81.5166,191.021 79.5,184.5C 79.5,177.167 79.5,169.833 79.5,162.5 Z"/></g>
<g><path style="opacity:1" fill="#033395" d="M 183.5,172.5 C 187.915,172.305 192.249,172.805 196.5,174C 209.832,180.817 213.832,191.317 208.5,205.5C 208.5,205.833 208.5,206.167 208.5,206.5C 200.392,217.143 190.059,219.977 177.5,215C 173.26,212.262 169.926,208.762 167.5,204.5C 167.737,203.209 167.404,202.209 166.5,201.5C 164.316,187.057 169.983,177.39 183.5,172.5 Z"/></g>
<g><path style="opacity:1" fill="#2198f7" d="M 329.5,188.5 C 329.5,205.833 329.5,223.167 329.5,240.5C 328.677,243.977 328.177,247.644 328,251.5C 323.464,251.68 320.464,249.346 319,244.5C 317.927,245.28 316.76,245.113 315.5,244C 312.544,240.532 309.211,237.532 305.5,235C 306.833,234.667 308.167,234.333 309.5,234C 308.333,233.5 307.5,232.667 307,231.5C 306.667,232.167 306.333,232.833 306,233.5C 303.881,233.493 302.047,232.326 300.5,230C 301.5,229.667 302.5,229.333 303.5,229C 302.234,228.691 301.067,228.191 300,227.5C 299.667,227.833 299.333,228.167 299,228.5C 298.228,227.151 297.061,226.318 295.5,226C 299.223,225.566 299.39,224.732 296,223.5C 295.228,223.645 294.561,223.978 294,224.5C 293.682,222.939 292.849,221.772 291.5,221C 293.932,219.913 293.598,219.413 290.5,219.5C 289.627,224.296 288.961,232.963 288.5,245.5C 288.5,230.833 288.5,216.167 288.5,201.5C 289.329,193.677 289.829,185.677 290,177.5C 290.333,178.833 290.667,180.167 291,181.5C 294.857,184.398 298.024,187.232 300.5,190C 304.195,193.799 308.195,196.466 312.5,198C 313.634,199.016 313.301,199.683 311.5,200C 313.483,201.889 315.816,203.222 318.5,204C 317.66,205.666 318.16,205.833 320,204.5C 321.55,208.389 324.216,211.389 328,213.5C 328.171,204.99 328.671,196.657 329.5,188.5 Z"/></g>
<g><path style="opacity:1" fill="#2978e0" d="M 167.5,204.5 C 169.926,208.762 173.26,212.262 177.5,215C 190.059,219.977 200.392,217.143 208.5,206.5C 208.5,237.167 208.5,267.833 208.5,298.5C 207.51,292.69 207.177,286.69 207.5,280.5C 207.5,272.5 207.5,264.5 207.5,256.5C 207.666,250.491 207.499,244.491 207,238.5C 206.95,244.01 206.283,249.343 205,254.5C 201.487,251.613 198.154,248.613 195,245.5C 194.667,245.833 194.333,246.167 194,246.5C 189.613,242.372 185.946,238.372 183,234.5C 182.667,234.833 182.333,235.167 182,235.5C 181.5,233.667 180.333,232.5 178.5,232C 182.196,229.586 181.696,229.086 177,230.5C 174.457,229.124 174.291,227.957 176.5,227C 175.428,225.716 174.095,225.383 172.5,226C 174.017,223.239 173.184,221.406 170,220.5C 169.667,220.833 169.333,221.167 169,221.5C 168.768,220.263 168.268,219.263 167.5,218.5C 167.5,213.833 167.5,209.167 167.5,204.5 Z"/></g>
<g><path style="opacity:1" fill="#0c5dd1" d="M 120.5,169.5 C 120.333,195.835 120.5,222.169 121,248.5C 122.779,252.612 125.612,255.778 129.5,258C 141.767,265.135 154.1,271.968 166.5,278.5C 166.5,252.833 166.5,227.167 166.5,201.5C 167.404,202.209 167.737,203.209 167.5,204.5C 167.5,209.167 167.5,213.833 167.5,218.5C 167.5,226.167 167.5,233.833 167.5,241.5C 167.057,250.608 167.557,259.608 169,268.5C 170.073,267.72 171.24,267.887 172.5,269C 175.671,272.119 178.671,274.619 181.5,276.5C 182.648,278.149 183.981,279.649 185.5,281C 185.179,282.937 186.179,284.437 188.5,285.5C 189.086,285.291 189.586,284.957 190,284.5C 193.436,290.147 197.936,294.813 203.5,298.5C 204.425,297.359 205.259,297.359 206,298.5C 206.172,292.319 206.672,286.319 207.5,280.5C 207.177,286.69 207.51,292.69 208.5,298.5C 208.833,298.5 209.167,298.5 209.5,298.5C 210.009,299.341 209.343,299.841 207.5,300C 209.335,300.928 209.668,302.094 208.5,303.5C 209.631,304.604 210.465,304.271 211,302.5C 211.51,305.005 213.01,306.505 215.5,307C 214.833,307.333 214.167,307.667 213.5,308C 215.83,310.167 218.497,311.834 221.5,313C 220.833,313.667 220.167,314.333 219.5,315C 223.207,315.527 226.04,317.36 228,320.5C 228.333,319.833 228.667,319.167 229,318.5C 229.833,320 231,321.167 232.5,322C 232.043,322.414 231.709,322.914 231.5,323.5C 235.85,323.878 237.517,326.211 236.5,330.5C 227.833,335.5 219.167,340.5 210.5,345.5C 208.998,343.825 207.665,341.992 206.5,340C 207.34,338.334 206.84,338.167 205,339.5C 204.097,338.299 202.931,337.465 201.5,337C 200.91,335.491 200.244,333.991 199.5,332.5C 198.268,331.855 196.935,331.689 195.5,332C 192.736,328.781 189.736,325.781 186.5,323C 188.167,322.667 189.833,322.333 191.5,322C 189.798,320.282 187.965,320.115 186,321.5C 184.829,320.107 183.329,319.273 181.5,319C 183.497,317.847 183.83,316.347 182.5,314.5C 182.704,315.529 182.204,316.529 181,317.5C 178.333,315.5 175.667,313.5 173,311.5C 172.798,309.744 172.298,308.078 171.5,306.5C 170.914,306.709 170.414,307.043 170,307.5C 168.89,305.963 167.39,305.297 165.5,305.5C 165.509,303.692 165.009,302.025 164,300.5C 163.667,301.167 163.333,301.833 163,302.5C 160.821,299.989 158.321,297.822 155.5,296C 156.5,295.667 157.5,295.333 158.5,295C 154.081,293.624 150.081,291.29 146.5,288C 150.324,286.698 150.324,285.198 146.5,283.5C 145.749,284.376 145.249,285.376 145,286.5C 143.127,284.291 140.96,282.458 138.5,281C 141.147,280.685 141.813,279.518 140.5,277.5C 138.303,275.7 135.97,275.2 133.5,276C 132.663,274.989 132.33,273.822 132.5,272.5C 131.127,272.657 129.793,272.49 128.5,272C 130.5,271.667 132.5,271.333 134.5,271C 131.643,268.13 128.31,266.13 124.5,265C 125.167,264.667 125.833,264.333 126.5,264C 125.069,263.535 123.903,262.701 123,261.5C 122.667,261.833 122.333,262.167 122,262.5C 121.344,258.998 120.011,258.998 118,262.5C 115.833,260.333 113.667,258.167 111.5,256C 112.549,255.508 113.549,255.674 114.5,256.5C 115.711,255.726 115.711,254.893 114.5,254C 112.559,253.257 110.726,253.424 109,254.5C 102.141,248.305 95.3076,242.138 88.5,236C 89.1667,235.667 89.8333,235.333 90.5,235C 88.7818,234.654 87.1151,234.154 85.5,233.5C 84.269,232.349 84.269,231.183 85.5,230C 83.8753,229.147 83.5419,228.147 84.5,227C 83.0039,226.493 81.8373,226.993 81,228.5C 80.8294,219.99 80.3294,211.657 79.5,203.5C 79.5,197.167 79.5,190.833 79.5,184.5C 81.5166,191.021 85.8499,195.521 92.5,198C 91.8333,198.333 91.1667,198.667 90.5,199C 92.792,200.29 94.792,201.957 96.5,204C 97.4491,204.617 98.2825,204.451 99,203.5C 100.957,205.327 102.124,207.16 102.5,209C 103.76,210.113 104.927,210.28 106,209.5C 109.551,212.194 112.051,215.528 113.5,219.5C 115.993,219.329 117.826,220.329 119,222.5C 119.5,214.173 119.666,205.84 119.5,197.5C 119.173,187.985 119.506,178.652 120.5,169.5 Z"/></g>
<g><path style="opacity:1" fill="#116ddb" d="M 167.5,218.5 C 168.268,219.263 168.768,220.263 169,221.5C 169.333,221.167 169.667,220.833 170,220.5C 173.184,221.406 174.017,223.239 172.5,226C 174.095,225.383 175.428,225.716 176.5,227C 174.291,227.957 174.457,229.124 177,230.5C 181.696,229.086 182.196,229.586 178.5,232C 180.333,232.5 181.5,233.667 182,235.5C 182.333,235.167 182.667,234.833 183,234.5C 185.946,238.372 189.613,242.372 194,246.5C 194.333,246.167 194.667,245.833 195,245.5C 198.154,248.613 201.487,251.613 205,254.5C 206.283,249.343 206.95,244.01 207,238.5C 207.499,244.491 207.666,250.491 207.5,256.5C 206.672,262.987 206.172,269.654 206,276.5C 203.618,273.573 201.118,270.739 198.5,268C 194.437,263.955 189.771,260.622 184.5,258C 186.301,257.683 186.634,257.016 185.5,256C 181.685,254.543 178.852,252.043 177,248.5C 176.667,248.833 176.333,249.167 176,249.5C 172.292,246.939 169.458,244.273 167.5,241.5C 167.5,233.833 167.5,226.167 167.5,218.5 Z"/></g>
<g><path style="opacity:1" fill="#1b8cef" d="M 329.5,240.5 C 329.667,251.838 329.5,263.172 329,274.5C 328.215,276.286 327.049,277.786 325.5,279C 320.28,282.393 314.947,285.56 309.5,288.5C 309.244,286.224 307.91,285.057 305.5,285C 297.622,276.351 288.289,267.851 277.5,259.5C 283.437,256.569 287.104,251.902 288.5,245.5C 288.961,232.963 289.627,224.296 290.5,219.5C 293.598,219.413 293.932,219.913 291.5,221C 292.849,221.772 293.682,222.939 294,224.5C 294.561,223.978 295.228,223.645 296,223.5C 299.39,224.732 299.223,225.566 295.5,226C 297.061,226.318 298.228,227.151 299,228.5C 299.333,228.167 299.667,227.833 300,227.5C 301.067,228.191 302.234,228.691 303.5,229C 302.5,229.333 301.5,229.667 300.5,230C 302.047,232.326 303.881,233.493 306,233.5C 306.333,232.833 306.667,232.167 307,231.5C 307.5,232.667 308.333,233.5 309.5,234C 308.167,234.333 306.833,234.667 305.5,235C 309.211,237.532 312.544,240.532 315.5,244C 316.76,245.113 317.927,245.28 319,244.5C 320.464,249.346 323.464,251.68 328,251.5C 328.177,247.644 328.677,243.977 329.5,240.5 Z"/></g>
<g><path style="opacity:1" fill="#0f66d6" d="M 167.5,241.5 C 169.458,244.273 172.292,246.939 176,249.5C 176.333,249.167 176.667,248.833 177,248.5C 178.852,252.043 181.685,254.543 185.5,256C 186.634,257.016 186.301,257.683 184.5,258C 189.771,260.622 194.437,263.955 198.5,268C 201.118,270.739 203.618,273.573 206,276.5C 206.172,269.654 206.672,262.987 207.5,256.5C 207.5,264.5 207.5,272.5 207.5,280.5C 206.672,286.319 206.172,292.319 206,298.5C 205.259,297.359 204.425,297.359 203.5,298.5C 197.936,294.813 193.436,290.147 190,284.5C 189.586,284.957 189.086,285.291 188.5,285.5C 186.179,284.437 185.179,282.937 185.5,281C 183.981,279.649 182.648,278.149 181.5,276.5C 178.671,274.619 175.671,272.119 172.5,269C 171.24,267.887 170.073,267.72 169,268.5C 167.557,259.608 167.057,250.608 167.5,241.5 Z"/></g>
<g><path style="opacity:1" fill="#0c56cc" d="M 79.5,203.5 C 80.3294,211.657 80.8294,219.99 81,228.5C 81.8373,226.993 83.0039,226.493 84.5,227C 83.5419,228.147 83.8753,229.147 85.5,230C 84.269,231.183 84.269,232.349 85.5,233.5C 87.1151,234.154 88.7818,234.654 90.5,235C 89.8333,235.333 89.1667,235.667 88.5,236C 95.3076,242.138 102.141,248.305 109,254.5C 110.726,253.424 112.559,253.257 114.5,254C 115.711,254.893 115.711,255.726 114.5,256.5C 113.549,255.674 112.549,255.508 111.5,256C 113.667,258.167 115.833,260.333 118,262.5C 120.011,258.998 121.344,258.998 122,262.5C 122.333,262.167 122.667,261.833 123,261.5C 123.903,262.701 125.069,263.535 126.5,264C 125.833,264.333 125.167,264.667 124.5,265C 128.31,266.13 131.643,268.13 134.5,271C 132.5,271.333 130.5,271.667 128.5,272C 129.793,272.49 131.127,272.657 132.5,272.5C 132.33,273.822 132.663,274.989 133.5,276C 135.97,275.2 138.303,275.7 140.5,277.5C 141.813,279.518 141.147,280.685 138.5,281C 140.96,282.458 143.127,284.291 145,286.5C 145.249,285.376 145.749,284.376 146.5,283.5C 150.324,285.198 150.324,286.698 146.5,288C 150.081,291.29 154.081,293.624 158.5,295C 157.5,295.333 156.5,295.667 155.5,296C 158.321,297.822 160.821,299.989 163,302.5C 163.333,301.833 163.667,301.167 164,300.5C 165.009,302.025 165.509,303.692 165.5,305.5C 167.39,305.297 168.89,305.963 170,307.5C 170.414,307.043 170.914,306.709 171.5,306.5C 172.298,308.078 172.798,309.744 173,311.5C 175.667,313.5 178.333,315.5 181,317.5C 182.204,316.529 182.704,315.529 182.5,314.5C 183.83,316.347 183.497,317.847 181.5,319C 183.329,319.273 184.829,320.107 186,321.5C 187.965,320.115 189.798,320.282 191.5,322C 189.833,322.333 188.167,322.667 186.5,323C 189.736,325.781 192.736,328.781 195.5,332C 196.935,331.689 198.268,331.855 199.5,332.5C 200.244,333.991 200.91,335.491 201.5,337C 202.931,337.465 204.097,338.299 205,339.5C 206.84,338.167 207.34,338.334 206.5,340C 207.665,341.992 208.998,343.825 210.5,345.5C 208.714,346.722 206.714,347.389 204.5,347.5C 200.626,346.565 196.96,345.065 193.5,343C 156.087,321.545 118.92,299.712 82,277.5C 81.5814,276.328 80.9147,275.328 80,274.5C 79.5,250.836 79.3334,227.169 79.5,203.5 Z"/></g>
<g><path style="opacity:1" fill="#177be4" d="M 277.5,259.5 C 288.289,267.851 297.622,276.351 305.5,285C 307.91,285.057 309.244,286.224 309.5,288.5C 299.003,294.248 288.67,300.248 278.5,306.5C 278.047,305.542 277.381,304.708 276.5,304C 277.308,303.692 277.975,303.192 278.5,302.5C 277.359,301.575 277.359,300.741 278.5,300C 270.875,295.309 264.542,289.976 259.5,284C 256.953,283.448 254.953,282.114 253.5,280C 253.833,279.667 254.167,279.333 254.5,279C 252.935,277.588 251.269,276.421 249.5,275.5C 258.571,269.775 267.904,264.441 277.5,259.5 Z"/></g>
<g><path style="opacity:1" fill="#146fdc" d="M 249.5,275.5 C 251.269,276.421 252.935,277.588 254.5,279C 254.167,279.333 253.833,279.667 253.5,280C 254.953,282.114 256.953,283.448 259.5,284C 264.542,289.976 270.875,295.309 278.5,300C 277.359,300.741 277.359,301.575 278.5,302.5C 277.975,303.192 277.308,303.692 276.5,304C 277.381,304.708 278.047,305.542 278.5,306.5C 271.337,310.247 264.337,314.247 257.5,318.5C 254.517,318.862 251.85,317.695 249.5,315C 249.833,314.667 250.167,314.333 250.5,314C 248.725,312.561 246.725,311.561 244.5,311C 243.218,308.342 241.385,305.842 239,303.5C 237.927,304.28 236.76,304.113 235.5,303C 232.167,299.667 228.833,296.333 225.5,293C 223.866,292.506 222.199,292.34 220.5,292.5C 229.967,286.596 239.633,280.929 249.5,275.5 Z"/></g>
<g><path style="opacity:1" fill="#1067d6" d="M 220.5,292.5 C 222.199,292.34 223.866,292.506 225.5,293C 228.833,296.333 232.167,299.667 235.5,303C 236.76,304.113 237.927,304.28 239,303.5C 241.385,305.842 243.218,308.342 244.5,311C 246.725,311.561 248.725,312.561 250.5,314C 250.167,314.333 249.833,314.667 249.5,315C 251.85,317.695 254.517,318.862 257.5,318.5C 250.5,322.5 243.5,326.5 236.5,330.5C 237.517,326.211 235.85,323.878 231.5,323.5C 231.709,322.914 232.043,322.414 232.5,322C 231,321.167 229.833,320 229,318.5C 228.667,319.167 228.333,319.833 228,320.5C 226.04,317.36 223.207,315.527 219.5,315C 220.167,314.333 220.833,313.667 221.5,313C 218.497,311.834 215.83,310.167 213.5,308C 214.167,307.667 214.833,307.333 215.5,307C 213.01,306.505 211.51,305.005 211,302.5C 210.465,304.271 209.631,304.604 208.5,303.5C 209.668,302.094 209.335,300.928 207.5,300C 209.343,299.841 210.009,299.341 209.5,298.5C 212.967,296.264 216.634,294.264 220.5,292.5 Z"/></g>
</svg>
